<?xml version="1.0" encoding="UTF-8"?>
<svg xmlns="http://www.w3.org/2000/svg" viewBox="0 0 1600 520" role="img" aria-labelledby="title desc">
  <title id="title">Civora logo</title>
  <desc id="desc">Civora wordmark with a geometric wireframe cube replacing the O and the tagline Reality. Rewritten Together.</desc>
  <defs>
    <filter id="soft-glow" x="-40%" y="-40%" width="180%" height="180%">
      <feGaussianBlur stdDeviation="2.4" result="blur"/>
      <feMerge>
        <feMergeNode in="blur"/>
        <feMergeNode in="SourceGraphic"/>
      </feMerge>
    </filter>
    <linearGradient id="civora-accent" x1="0" x2="1" y1="0" y2="1">
      <stop offset="0%" stop-color="#FFFFFF"/>
      <stop offset="55%" stop-color="#D8E7FF"/>
      <stop offset="100%" stop-color="#B690FF"/>
    </linearGradient>
  </defs>
  <style>
    svg { background: transparent; color: #ffffff; }
    .word { fill: currentColor; }
    .tagline { fill: currentColor; opacity: 0.92; }
    .rule { stroke: currentColor; stroke-width: 2.2; opacity: 0.72; stroke-linecap: round; }
    .mark-orbit { fill: none; stroke: currentColor; stroke-width: 5.4; stroke-linejoin: round; opacity: 0.96; }
    .mark-line { fill: none; stroke: currentColor; stroke-width: 4.2; stroke-linecap: round; stroke-linejoin: round; opacity: 0.98; }
    .mark-fine { fill: none; stroke: currentColor; stroke-width: 2.4; stroke-linecap: round; stroke-linejoin: round; opacity: 0.82; }
    .mark-node { fill: currentColor; stroke: none; opacity: 0.98; }
    .accent { stroke: url(#civora-accent); }
  </style>
  <g id="civora-logo" transform="translate(266.38, 0)">
    <g id="civora-wordmark">
      <path class="word" d="M 190.41 240.09 C 218.67 240.09 240.55 222.62 245 195.06 L 225.42 195.06 C 221.36 212.61 208.15 222.45 190.58 222.45 C 165.04 222.45 149.39 202.62 149.39 173.34 C 149.39 143.88 165.04 124.05 190.58 124.05 C 208.24 124.05 221.53 133.95 225.34 151.61 L 245 151.61 C 240.47 123.97 218.67 106.42 190.41 106.42 C 154.61 106.42 130 133.45 130 173.34 C 130 212.97 154.70 240.09 190.41 240.09 Z"/>
      <path class="word" d="M 302.31 108.50 L 283 108.50 L 283 238 L 302.31 238 L 302.31 108.50 Z"/>
      <path class="word" d="M 387.34 238 L 410.53 238 L 456.87 108.50 L 436.43 108.50 L 411.48 181.51 C 408.36 190.89 404.44 203.40 399.24 220.45 C 393.85 203.40 389.84 190.89 386.73 181.51 L 361.08 108.50 L 340.31 108.50 L 387.34 238 Z"/>
      <g id="civora-o-cube" aria-label="O cube mark">
        <polygon class="mark-orbit" points="630.49,196.46 569.87,231.46 509.25,196.46 509.25,126.46 569.87,91.46 630.49,126.46"/>
        <polygon class="mark-line" points="608.67,183.86 569.87,206.26 531.07,183.86 531.07,139.06 569.87,116.66 608.67,139.06"/>
        <polygon class="mark-fine" points="590.48,173.36 569.87,185.26 549.26,173.36 549.26,149.56 569.87,137.66 590.48,149.56"/>
        <line class="mark-line" x1="569.87" y1="206.26" x2="569.87" y2="161.46"/>
        <line class="mark-line" x1="531.07" y1="139.06" x2="569.87" y2="161.46"/>
        <line class="mark-line" x1="608.67" y1="139.06" x2="569.87" y2="161.46"/>
        <line class="mark-fine" x1="590.48" y1="173.36" x2="608.67" y2="183.86"/>
        <line class="mark-fine" x1="549.26" y1="173.36" x2="531.07" y2="183.86"/>
        <line class="mark-fine" x1="569.87" y1="137.66" x2="569.87" y2="116.66"/>
        <line class="mark-fine" x1="569.87" y1="161.46" x2="569.87" y2="185.26"/>
        <line class="mark-fine" x1="569.87" y1="161.46" x2="549.26" y2="149.56"/>
        <line class="mark-fine" x1="569.87" y1="161.46" x2="590.48" y2="149.56"/>
        <polygon class="mark-node" points="569.87,157.61 573.72,161.46 569.87,165.31 566.02,161.46"/>
      </g>
      <path class="word" d="M 685.87 238 L 705.17 238 L 705.17 188.97 L 733.85 188.97 C 734.10 188.97 734.46 188.97 734.71 188.97 L 760.52 238 L 782.27 238 L 754.26 185.77 C 770.45 179.93 780.26 166.91 780.26 148.83 C 780.26 124.05 762.88 108.50 735.15 108.50 L 685.87 108.50 L 685.87 238 Z M 705.17 172.56 L 705.17 125.19 L 734.29 125.19 C 750.98 125.19 761.21 134.23 761.21 148.83 C 761.21 163.43 751.06 172.56 734.37 172.56 L 705.17 172.56 Z"/>
      <path class="word" d="M 820.27 238 L 840.79 238 L 852.61 204.37 L 904.84 204.37 L 916.30 238 L 937.25 238 L 890.58 108.50 L 867.30 108.50 L 820.27 238 Z M 858.43 187.94 L 866.52 164.99 C 870.08 154.31 873.81 142.91 879.03 126.14 C 884.15 142.91 887.80 154.31 891.36 164.99 L 899.20 187.94 L 858.43 187.94 Z"/>
    </g>
  </g>
  <line class="rule" x1="410" y1="304" x2="1190" y2="304"/>
  <g id="civora-tagline">
    <path class="tagline" d="M 450.62 365 L 453.51 365 L 453.51 355.57 L 459.30 355.57 C 459.38 355.57 459.44 355.57 459.53 355.57 L 464.59 365 L 467.97 365 L 462.57 355.11 C 465.71 354.14 467.68 351.71 467.68 348.27 C 467.68 343.79 464.54 340.99 459.53 340.99 L 450.62 340.99 L 450.62 365 Z M 453.51 353 L 453.51 343.57 L 459.43 343.57 C 462.77 343.57 464.81 345.36 464.81 348.27 C 464.81 351.19 462.78 353 459.46 353 L 453.51 353 Z"/>
    <path class="tagline" d="M 476.97 365 L 492.58 365 L 492.58 362.42 L 479.87 362.42 L 479.87 354 L 491.64 354 L 491.64 351.42 L 479.87 351.42 L 479.87 343.57 L 492.58 343.57 L 492.58 340.99 L 476.97 340.99 L 476.97 365 Z"/>
    <path class="tagline" d="M 501.58 365 L 504.61 365 L 507.03 358.27 L 517.05 358.27 L 519.40 365 L 522.49 365 L 513.73 340.99 L 510.44 340.99 L 501.58 365 Z M 507.94 355.69 L 509.79 350.53 C 510.41 348.84 511.05 346.91 512.08 343.71 C 513.12 346.91 513.76 348.84 514.36 350.53 L 516.16 355.69 L 507.94 355.69 Z"/>
    <path class="tagline" d="M 531.49 365 L 545.96 365 L 545.96 362.42 L 534.39 362.42 L 534.39 340.99 L 531.49 340.99 L 531.49 365 Z"/>
    <path class="tagline" d="M 557.86 340.99 L 554.96 340.99 L 554.96 365 L 557.86 365 L 557.86 340.99 Z"/>
    <path class="tagline" d="M 566.86 343.57 L 574.69 343.57 L 574.69 365 L 577.60 365 L 577.60 343.57 L 585.39 343.57 L 585.39 340.99 L 566.86 340.99 L 566.86 343.57 Z"/>
    <path class="tagline" d="M 603.22 365 L 606.12 365 L 606.12 355.11 L 614.95 340.99 L 611.61 340.99 L 606.81 348.76 C 606.09 349.95 605.38 351.14 604.68 352.32 C 603.99 351.14 603.30 349.95 602.56 348.76 L 597.74 340.99 L 594.39 340.99 L 603.22 355.11 L 603.22 365 Z"/>
    <path class="tagline" d="M 625.96 365.27 C 627.09 365.27 627.98 364.39 627.98 363.26 C 627.98 362.13 627.09 361.25 625.96 361.25 C 624.83 361.25 623.95 362.13 623.95 363.26 C 623.95 364.39 624.83 365.27 625.96 365.27 Z"/>
    <path class="tagline" d="M 658.52 365 L 661.42 365 L 661.42 355.57 L 667.20 355.57 C 667.28 355.57 667.34 355.57 667.43 355.57 L 672.49 365 L 675.87 365 L 670.47 355.11 C 673.61 354.14 675.58 351.71 675.58 348.27 C 675.58 343.79 672.44 340.99 667.43 340.99 L 658.52 340.99 L 658.52 365 Z M 661.42 353 L 661.42 343.57 L 667.33 343.57 C 670.67 343.57 672.71 345.36 672.71 348.27 C 672.71 351.19 670.68 353 667.36 353 L 661.42 353 Z"/>
    <path class="tagline" d="M 684.87 365 L 700.48 365 L 700.48 362.42 L 687.77 362.42 L 687.77 354 L 699.54 354 L 699.54 351.42 L 687.77 351.42 L 687.77 343.57 L 700.48 343.57 L 700.48 340.99 L 684.87 340.99 L 684.87 365 Z"/>
    <path class="tagline" d="M 716.02 365 L 719.44 365 L 723.62 349.53 C 724.08 347.87 724.45 346.20 724.80 344.53 C 725.16 346.20 725.54 347.87 726 349.53 L 730.20 365 L 733.59 365 L 740.16 340.99 L 737.20 340.99 L 733.33 355.98 C 732.81 357.99 732.31 360 731.89 362.02 C 731.46 360 730.96 357.99 730.43 355.98 L 726.50 340.99 L 723.15 340.99 L 719.18 355.98 C 718.65 358.02 718.15 360.07 717.73 362.12 C 717.29 360.07 716.83 358.02 716.29 355.98 L 712.41 340.99 L 709.48 340.99 L 716.02 365 Z"/>
    <path class="tagline" d="M 749.16 365 L 752.06 365 L 752.06 355.57 L 757.84 355.57 C 757.93 355.57 757.99 355.57 758.07 355.57 L 763.13 365 L 766.51 365 L 761.11 355.11 C 764.26 354.14 766.22 351.71 766.22 348.27 C 766.22 343.79 763.08 340.99 758.07 340.99 L 749.16 340.99 L 749.16 365 Z M 752.06 353 L 752.06 343.57 L 757.97 343.57 C 761.31 343.57 763.36 345.36 763.36 348.27 C 763.36 351.19 761.32 353 758 353 L 752.06 353 Z"/>
    <path class="tagline" d="M 778.41 340.99 L 775.51 340.99 L 775.51 365 L 778.41 365 L 778.41 340.99 Z"/>
    <path class="tagline" d="M 787.41 343.57 L 795.24 343.57 L 795.24 365 L 798.14 365 L 798.14 343.57 L 805.94 343.57 L 805.94 340.99 L 787.41 340.99 L 787.41 343.57 Z"/>
    <path class="tagline" d="M 814.94 343.57 L 822.77 343.57 L 822.77 365 L 825.68 365 L 825.68 343.57 L 833.47 343.57 L 833.47 340.99 L 814.94 340.99 L 814.94 343.57 Z"/>
    <path class="tagline" d="M 842.47 365 L 858.09 365 L 858.09 362.42 L 845.37 362.42 L 845.37 354 L 857.15 354 L 857.15 351.42 L 845.37 351.42 L 845.37 343.57 L 858.09 343.57 L 858.09 340.99 L 842.47 340.99 L 842.47 365 Z"/>
    <path class="tagline" d="M 867.09 365 L 869.98 365 L 869.98 351.08 C 869.98 350.02 869.95 347.95 869.84 344.97 C 871.56 347.86 872.92 350.08 873.58 351.11 L 882.37 365 L 885.74 365 L 885.74 340.99 L 882.84 340.99 L 882.84 356.49 C 882.84 357.30 882.89 359.37 882.94 361.05 C 881.97 359.34 880.88 357.52 880.31 356.62 L 870.42 340.99 L 867.09 340.99 L 867.09 365 Z"/>
    <path class="tagline" d="M 916.28 343.57 L 924.11 343.57 L 924.11 365 L 927.02 365 L 927.02 343.57 L 934.81 343.57 L 934.81 340.99 L 916.28 340.99 L 916.28 343.57 Z"/>
    <path class="tagline" d="M 954.72 365.39 C 961.09 365.39 965.63 360.21 965.63 353.01 C 965.63 345.78 961.09 340.61 954.72 340.61 C 948.36 340.61 943.81 345.78 943.81 353.01 C 943.81 360.21 948.36 365.39 954.72 365.39 Z M 954.72 362.68 C 950.36 362.68 946.72 359.23 946.72 353.01 C 946.72 346.76 950.36 343.31 954.72 343.31 C 959.08 343.31 962.73 346.76 962.73 353.01 C 962.73 359.23 959.08 362.68 954.72 362.68 Z"/>
    <path class="tagline" d="M 985.61 365.39 C 991.33 365.39 995.74 361.19 995.74 355.59 L 995.74 353 L 986.59 353 L 986.59 355.57 L 992.88 355.57 C 992.85 359.80 989.60 362.68 985.61 362.68 C 980.81 362.68 977.54 358.71 977.54 353.01 C 977.54 347.27 980.81 343.31 985.61 343.31 C 989.14 343.31 991.92 345.54 992.67 348.76 L 995.60 348.76 C 994.76 343.96 990.70 340.61 985.61 340.61 C 979.21 340.61 974.63 345.75 974.63 353.01 C 974.63 360.23 979.23 365.39 985.61 365.39 Z"/>
    <path class="tagline" d="M 1004.74 365 L 1020.36 365 L 1020.36 362.42 L 1007.64 362.42 L 1007.64 354 L 1019.42 354 L 1019.42 351.42 L 1007.64 351.42 L 1007.64 343.57 L 1020.36 343.57 L 1020.36 340.99 L 1004.74 340.99 L 1004.74 365 Z"/>
    <path class="tagline" d="M 1029.36 343.57 L 1037.19 343.57 L 1037.19 365 L 1040.09 365 L 1040.09 343.57 L 1047.89 343.57 L 1047.89 340.99 L 1029.36 340.99 L 1029.36 343.57 Z"/>
    <path class="tagline" d="M 1056.89 365 L 1059.79 365 L 1059.79 354 L 1072.58 354 L 1072.58 365 L 1075.48 365 L 1075.48 340.99 L 1072.58 340.99 L 1072.58 351.42 L 1059.79 351.42 L 1059.79 340.99 L 1056.89 340.99 L 1056.89 365 Z"/>
    <path class="tagline" d="M 1084.48 365 L 1100.09 365 L 1100.09 362.42 L 1087.38 362.42 L 1087.38 354 L 1099.16 354 L 1099.16 351.42 L 1087.38 351.42 L 1087.38 343.57 L 1100.09 343.57 L 1100.09 340.99 L 1084.48 340.99 L 1084.48 365 Z"/>
    <path class="tagline" d="M 1109.09 365 L 1111.99 365 L 1111.99 355.57 L 1117.78 355.57 C 1117.86 355.57 1117.92 355.57 1118 355.57 L 1123.06 365 L 1126.45 365 L 1121.05 355.11 C 1124.19 354.14 1126.16 351.71 1126.16 348.27 C 1126.16 343.79 1123.02 340.99 1118 340.99 L 1109.09 340.99 L 1109.09 365 Z M 1111.99 353 L 1111.99 343.57 L 1117.91 343.57 C 1121.24 343.57 1123.29 345.36 1123.29 348.27 C 1123.29 351.19 1121.26 353 1117.94 353 L 1111.99 353 Z"/>
    <path class="tagline" d="M 1137.46 365.27 C 1138.59 365.27 1139.47 364.39 1139.47 363.26 C 1139.47 362.13 1138.59 361.25 1137.46 361.25 C 1136.33 361.25 1135.45 362.13 1135.45 363.26 C 1135.45 364.39 1136.33 365.27 1137.46 365.27 Z"/>
  </g>
</svg>
